<?xml version="1.0" encoding="UTF-8"?>
<svg width="170px" height="169px" viewBox="0 0 170 169" version="1.1" xmlns="http://www.w3.org/2000/svg" xmlns:xlink="http://www.w3.org/1999/xlink">
    <title>menu</title>
    <g id="页面-1" stroke="none" stroke-width="1" fill="none" fill-rule="evenodd">
        <path d="M138,0.5 C146.698485,0.5 154.573485,4.0257576 160.273864,9.72613639 C165.974242,15.4265152 169.5,23.3015152 169.5,32 L169.5,137 C169.5,145.698485 165.974242,153.573485 160.273864,159.273864 C154.573485,164.974242 146.698485,168.5 138,168.5 L32,168.5 C23.3015152,168.5 15.4265152,164.974242 9.72613639,159.273864 C4.0257576,153.573485 0.5,145.698485 0.5,137 L0.5,32 C0.5,23.3015152 4.0257576,15.4265152 9.72613639,9.72613639 C15.4265152,4.0257576 23.3015152,0.5 32,0.5 L138,0.5 Z M137.854,45.5255 C131.927169,45.5255 126.570382,46.2099127 121.783639,47.578738 C116.956676,48.9578705 112.838899,51.2569178 109.430308,54.4758801 C106.024293,57.6905461 103.401232,61.9188098 101.561125,67.1606714 C99.7374257,72.3658119 98.8240508,78.7677547 98.821,86.3665 C98.821,94.6475402 99.7725044,101.427454 101.675513,106.70624 C103.591505,112.032696 106.294573,116.207807 109.784719,119.231571 C113.271723,122.25875 117.486565,124.348061 122.429243,125.499504 C127.321946,126.637342 132.802532,127.206674 138.871,127.2075 C142.517125,127.2075 146.049297,126.903594 149.467517,126.295781 C153.045482,125.659698 156.08331,124.857053 158.581,123.887846 L158.581,103.73639 C155.381236,104.907987 152.159975,105.714039 148.917216,106.154548 C145.889067,106.565778 142.916995,106.771429 140.001,106.7715 C137.270153,106.7715 134.926487,106.477279 132.970002,105.888836 C131.068689,105.314855 129.489949,104.292699 128.233782,102.822369 C126.959189,101.329274 126.015301,99.2710188 125.40212,96.6476037 C124.768863,93.9655766 124.453157,90.5385421 124.455,86.3665 C124.455,82.4137069 124.734089,79.076086 125.292267,76.3536371 C125.839328,73.6912766 126.730786,71.5561388 127.966643,69.9482238 C129.188275,68.3672878 130.733259,67.235424 132.601596,66.5526325 C134.513789,65.8539467 136.867257,65.5062359 139.662,65.5095 C146.275511,65.5095 152.280511,66.5639984 157.677,68.6729953 L157.677,48.5062821 C155.171162,47.5310362 152.166186,46.7840649 148.662071,46.2653681 C145.324842,45.7723684 141.722152,45.5257457 137.854,45.5255 Z M66.222912,46.6555 L35.1270337,46.6555 L5.94459851,126.0775 L30.5246002,126.0775 L36.0616002,109.5795 L64.7200548,109.5795 L70.1440548,126.0775 L95.1764653,126.0775 L66.222912,46.6555 Z M50.8205116,66.9785 L58.5163227,90.4995 L42.3837025,90.4995 L50.1879053,66.9785 L50.8205116,66.9785 Z" id="形状结合" stroke="#1B1D22" fill="#1B1D22"></path>
    </g>
</svg>